<svg width="563px" height="500px" viewBox="0 0 563 500" version="1.1" xmlns="http://www.w3.org/2000/svg" xmlns:xlink="http://www.w3.org/1999/xlink">
	<g stroke="none" stroke-width="1" fill="none">
		<circle fill="#00D8FF" cx="281.529" cy="249.628" r="50.167" />
		<path stroke="#00D8FF" stroke-width="24" d="M281.529,147.628 C348.885,147.628 411.457,157.293 458.636,173.535 C515.48,193.104 550.43,222.768 550.43,249.628 C550.43,277.619 513.389,309.131 452.347,329.356 C406.196,344.647 345.468,352.628 281.529,352.628 C215.975,352.628 153.899,345.136 107.239,329.187 C48.193,309.005 12.628,277.084 12.628,249.628 C12.628,222.986 45.998,193.552 102.043,174.012 C149.398,157.503 213.515,147.628 281.529,147.628 L281.529,147.628 Z" />
		<path stroke="#00D8FF" stroke-width="24" d="M192.736,198.922 C226.385,140.574 266.017,91.198 303.656,58.442 C349.006,18.976 392.163,3.519 415.431,16.937 C439.679,30.92 448.473,78.751 435.498,141.733 C425.688,189.351 402.264,245.945 370.322,301.334 C337.573,358.122 300.072,408.153 262.945,440.606 C215.964,481.674 170.545,496.535 146.76,482.819 C123.681,469.509 114.854,425.898 125.926,367.586 C135.281,318.316 158.758,257.841 192.736,198.922 L192.736,198.922 Z" />
		<path stroke="#00D8FF" stroke-width="24" d="M192.821,301.482 C159.075,243.19 136.09,184.195 126.509,135.227 C114.965,76.228 123.127,31.118 146.373,17.661 C170.597,3.637 216.428,19.905 264.513,62.601 C300.869,94.881 338.201,143.438 370.236,198.774 C403.08,255.507 427.697,312.983 437.272,361.356 C449.389,422.569 439.581,469.34 415.819,483.096 C392.762,496.444 350.57,482.312 305.58,443.597 C267.567,410.886 226.898,360.344 192.821,301.482 L192.821,301.482 Z" />
	</g>
</svg>